<?xml version="1.0" encoding="UTF-8" standalone="no"?>
<!-- Generator: Adobe Illustrator 26.0.1, SVG Export Plug-In . SVG Version: 6.00 Build 0)  -->

<svg
   version="1.1"
   id="圖層_1"
   x="0px"
   y="0px"
   viewBox="0 0 50 41"
   xml:space="preserve"
   sodipodi:docname="logo.svg"
   inkscape:version="1.4.2 (f4327f4, 2025-05-13)"
   width="50"
   height="41"
   xmlns:inkscape="http://www.inkscape.org/namespaces/inkscape"
   xmlns:sodipodi="http://sodipodi.sourceforge.net/DTD/sodipodi-0.dtd"
   xmlns="http://www.w3.org/2000/svg"
   xmlns:svg="http://www.w3.org/2000/svg"><defs
   id="defs79" /><sodipodi:namedview
   id="namedview79"
   pagecolor="#ffffff"
   bordercolor="#000000"
   borderopacity="0.25"
   inkscape:showpageshadow="2"
   inkscape:pageopacity="0.0"
   inkscape:pagecheckerboard="0"
   inkscape:deskcolor="#d1d1d1"
   inkscape:zoom="26"
   inkscape:cx="31.019231"
   inkscape:cy="22.673077"
   inkscape:window-width="3840"
   inkscape:window-height="2066"
   inkscape:window-x="1789"
   inkscape:window-y="-11"
   inkscape:window-maximized="1"
   inkscape:current-layer="圖層_1" />
<style
   type="text/css"
   id="style1">
	.st0{fill:#FFFFFF;}
	.st1{fill:#FFE900;}
	.st2{fill:#8CC63F;}
	.st3{fill:#FFFFFF;stroke:#FFFFFF;stroke-width:7.3623;stroke-linecap:round;stroke-linejoin:round;stroke-miterlimit:10;}
	.st4{fill:#863D24;}
	.st5{fill:#702F18;}
	.st6{fill:#864C24;}
	.st7{fill:#DA464D;}
	.st8{fill:#472924;}
	.st9{fill:#231815;}
	.st10{fill-rule:evenodd;clip-rule:evenodd;fill:#221814;}
	.st11{fill-rule:evenodd;clip-rule:evenodd;fill:#FFFFFF;}
	.st12{fill:none;stroke:#231815;stroke-width:1.5769;stroke-linecap:round;stroke-linejoin:round;stroke-miterlimit:10;}
	.st13{fill:none;stroke:#231815;stroke-width:3.9423;stroke-linecap:round;stroke-linejoin:round;stroke-miterlimit:10;}
	.st14{fill:none;stroke:#231815;stroke-width:2.5813;stroke-linecap:round;stroke-linejoin:round;stroke-miterlimit:10;}
	.st15{fill:none;stroke:#040000;stroke-width:1.152;stroke-linecap:round;stroke-linejoin:round;stroke-miterlimit:10;}
	.st16{fill:#8E613B;stroke:#040000;stroke-width:0.864;stroke-linecap:round;stroke-linejoin:round;stroke-miterlimit:10;}
	.st17{fill-rule:evenodd;clip-rule:evenodd;fill:#E2BC98;}
	
		.st18{fill-rule:evenodd;clip-rule:evenodd;fill:none;stroke:#040000;stroke-width:3.4561;stroke-linecap:round;stroke-linejoin:round;stroke-miterlimit:10;}
	.st19{fill-rule:evenodd;clip-rule:evenodd;fill:#8E613B;}
	.st20{fill:#040000;}
	.st21{fill:none;stroke:#040000;stroke-width:3.4561;stroke-linecap:round;stroke-linejoin:round;stroke-miterlimit:10;}
	
		.st22{fill-rule:evenodd;clip-rule:evenodd;fill:none;stroke:#040000;stroke-width:3.7091;stroke-linecap:round;stroke-linejoin:round;stroke-miterlimit:10;}
</style>



<g
   id="g58"
   transform="matrix(0.18781237,0,0,0.18781237,-3.3785784,-12.079878)">
	<g
   id="g47">
		<path
   class="st3"
   d="m 279.22,131.39 c -1.49,-4.53 -1.24,-3.31 -3.84,-6.62 -3.64,-4.64 -15.97,-3.09 -21.37,-5.97 -5.13,-7.93 -12.31,-24.59 -23.82,-26.72 0.21,-0.55 0.33,-1.15 0.34,-1.8 0.06,-2.46 -0.86,-4.75 -2.81,-6.98 -3.13,-3.58 -7.43,-5.52 -12.8,-5.78 -1.66,-0.08 -3.33,0.02 -4.94,0.12 l -0.53,0.03 c -1.35,0.08 -2.86,0.18 -4.4,0.32 2.36,-0.39 4.8,-0.79 7.49,-1.24 -5.13,-5 -11.02,-8.24 -21.88,-8.75 -0.72,3.66 1.34,8.52 4.98,11.31 -4.78,0.74 -8.86,1.85 -12.47,3.38 -0.99,0.42 -1.93,0.89 -2.92,1.4 -0.46,0.23 -0.93,0.47 -1.42,0.71 -0.42,0.2 -0.69,0.62 -0.71,1.09 0,0.01 0,0.03 0,0.04 -0.19,0.15 -0.39,0.29 -0.57,0.44 l 0.73,0.2 c 0.06,0.1 0.13,0.2 0.22,0.28 -6.55,-3.41 -14.56,-4.09 -20.25,-3.62 -0.06,0 -0.12,0 -0.18,0 -0.68,0.01 -1.36,0.02 -2.05,0.02 -0.25,0 -0.5,0.1 -0.68,0.28 -0.02,0.02 -0.03,0.05 -0.04,0.07 -3.45,0.61 -5.26,1.68 -3.94,2.57 0,0 0,0 0,0 0.28,0.66 0.54,1.3 0.8,1.93 1.85,5.39 4.39,9.3 8.81,11.67 -0.75,-0.12 -1.52,-0.18 -2.34,-0.18 -0.72,0 -1.51,0.33 -2.07,0.84 -0.44,0.41 -0.84,0.83 -1.22,1.24 -0.27,0.29 -0.54,0.58 -0.82,0.85 -2.34,2.29 -5.29,4.19 -9,5.79 -5.25,2.27 -10.09,3.51 -14.81,3.8 -0.61,0.04 -1.25,0.03 -1.92,0.02 -0.33,-0.01 -0.66,-0.01 -1,-0.01 -0.24,0 -0.47,0.05 -0.68,0.15 -0.33,0 -0.68,0.01 -0.77,0.01 0.05,0.15 0.12,0.31 0.18,0.48 -0.26,0.35 -0.37,0.79 -0.3,1.22 l 0.02,0.13 c 0.02,0.15 0.05,0.41 0.21,0.71 1.96,3.67 4.09,6.61 6.52,8.98 1.2,1.17 2.69,2.44 4.66,2.98 -5.01,2.31 -8.8,5.26 -11.58,9.04 -0.6,0.81 -1.15,1.63 -1.73,2.49 -0.27,0.4 -0.54,0.8 -0.82,1.21 -0.25,0.37 -0.33,0.83 -0.23,1.25 -0.02,0.11 -0.03,0.3 -0.03,0.62 0.09,0 0.2,0 0.32,0 0.27,0.35 0.67,0.58 1.12,0.61 l 0.35,0.03 c 0.23,0.02 0.4,0.03 0.56,0.04 0.51,0.01 1.02,0.01 1.54,0 1.1,-0.01 2.13,-0.01 3.15,0.09 1.57,0.16 2.99,0.44 4.22,0.83 0.36,0.11 0.64,0.2 0.49,1.15 -0.14,0.89 -0.55,1.66 -1.18,2.22 -1.73,1.53 -3.44,2.92 -5.1,4.13 -1.91,1.21 -3.76,2.29 -4.95,3.16 -0.08,0.05 -0.16,0.09 -0.24,0.15 -0.14,0.09 -0.26,0.2 -0.37,0.32 -0.6,0.51 -0.87,0.91 -0.65,1.2 -4.41,-0.63 -8.42,-0.92 -12.1,-0.82 -0.22,0 -0.43,0 -0.67,0 -4.33,0 -8.23,0.69 -11.75,1.92 0.02,-0.1 0.03,-0.19 0.01,-0.27 -2.67,-3.66 -19.71,-13.22 -27.78,-12.82 -0.05,0 -0.09,0.01 -0.14,0.01 -0.39,-0.02 -0.77,-0.03 -1.13,-0.01 -23.6,1.17 -22.3,19.61 -34.36,28.34 -3.3,2.39 -4.74,3.29 -12.91,4.35 1.85,2.79 11.49,9.01 23.54,8.79 5.76,0.11 12.13,-1.22 18.5,-5.1 -2.38,2.5 -3.8,4.91 -5.05,9.8 0.51,-0.19 0.98,-0.38 1.42,-0.57 -0.05,0.19 -0.1,0.37 -0.15,0.57 6.32,-2.41 7.34,-3.99 14.22,-6.1 -0.24,0.59 -0.46,1.18 -0.68,1.78 -0.08,0.1 -0.17,0.19 -0.26,0.3 -2.17,2.56 -2.5,7.04 -2.54,10.16 -0.12,8.12 -0.88,16.01 1.44,23.71 0.12,5.41 -1,3.61 -6.43,6.55 -3.59,1.95 -5.57,4.69 -6.43,7.91 -1.11,2.29 -1.29,5 -1.13,7.57 0.55,8.34 4.3,16.16 9.54,22.73 1.59,3.1 3.03,5.85 3.94,7.99 0.56,1.32 1.68,2.12 3.14,2.53 0.04,0.05 0.08,0.1 0.11,0.14 4.13,2.49 15.81,-0.17 21.69,-4.98 0.03,-0.01 0.06,-0.03 0.08,-0.04 1.77,-0.94 2.85,-2.27 3.05,-4 0.21,-0.59 0.34,-1.19 0.34,-1.8 0,-2.94 -4.21,-6.66 -6.92,-9.61 -0.43,-0.77 -0.77,-1.51 -1.01,-2.18 0.98,0.11 2.53,0.18 3.63,0.12 0.38,0.48 0.79,1.03 1.22,1.65 3.88,5.47 5.68,8.66 7.11,12.4 0.21,0.59 0.43,1.19 0.64,1.78 0.29,0.84 0.57,1.73 0.86,2.69 0.13,0.41 0.25,0.84 0.39,1.28 0.01,0.03 0.02,0.06 0.03,0.09 0.13,0.43 0.26,0.88 0.4,1.34 0.02,0.08 0.05,0.16 0.07,0.25 0.08,0.26 0.16,0.53 0.24,0.8 0.05,0.16 0.1,0.33 0.15,0.49 0.01,0.03 0.02,0.05 0.02,0.08 0.16,0.53 0.32,1.08 0.49,1.66 0.3,0.64 1.11,1.11 2.27,1.44 0.23,0.06 0.48,0.12 0.74,0.17 1.04,0.21 2.28,0.32 3.64,0.34 0.68,0.01 1.4,0 2.13,-0.03 4.65,-0.21 10.13,-1.29 13.96,-3.05 2.59,-0.87 4.66,-2.07 5.61,-3.75 0,-0.47 -0.22,-1.43 -0.6,-2.72 0.01,-0.21 0.02,-0.43 0.01,-0.65 0,-0.17 -0.02,-0.34 -0.03,-0.51 -0.02,-0.26 -0.03,-0.52 -0.06,-0.79 -0.02,-0.18 -0.04,-0.35 -0.07,-0.53 -0.04,-0.28 -0.08,-0.56 -0.13,-0.84 -0.03,-0.18 -0.07,-0.36 -0.11,-0.54 -0.06,-0.3 -0.13,-0.6 -0.2,-0.9 -0.04,-0.18 -0.09,-0.35 -0.13,-0.53 -0.09,-0.32 -0.18,-0.65 -0.27,-0.98 -0.05,-0.17 -0.1,-0.33 -0.15,-0.5 -0.11,-0.35 -0.23,-0.71 -0.35,-1.07 -0.03,-0.1 -0.06,-0.2 -0.1,-0.31 0,0 0,0.01 0,0.01 -1.29,-3.7 -3.16,-7.64 -4.93,-11.24 -1.34,-4.27 -2.82,-8.48 -4.47,-12.64 0.05,-0.02 0.11,-0.03 0.17,-0.04 0.83,0.12 1.66,0.22 2.49,0.29 3.38,0.43 6.79,0.58 10.19,0.43 0.62,0.02 1.25,0.04 1.87,0.07 0.38,0.23 0.56,0.53 0.45,0.92 -0.96,3.66 0.97,7.16 3.82,9.76 0.73,0.76 1.57,1.4 2.5,1.91 3.77,2.41 8.07,3.28 9.7,1.38 0.07,-0.08 0.2,0 0.17,0.1 -0.75,2.3 -1.27,4.09 -1.44,5.6 v 0 c 0,0 0,0 0,0 -0.02,0.21 -0.04,0.42 -0.05,0.62 0,0.01 0,0.02 0,0.04 -0.01,0.19 -0.01,0.37 0,0.55 0,0.02 0,0.05 0,0.07 0.01,0.17 0.02,0.33 0.04,0.49 0,0.03 0.01,0.06 0.01,0.09 0.02,0.15 0.05,0.29 0.08,0.44 0.01,0.04 0.02,0.07 0.02,0.11 0.03,0.13 0.07,0.27 0.12,0.4 0.01,0.04 0.03,0.08 0.04,0.13 0.05,0.12 0.1,0.25 0.15,0.37 0.02,0.04 0.04,0.09 0.06,0.13 0.06,0.12 0.13,0.24 0.2,0.36 0.02,0.04 0.04,0.08 0.07,0.12 0.1,0.16 0.21,0.31 0.33,0.47 2.23,2.87 6.11,4.97 10.19,6.02 0.31,0.08 0.63,0.15 0.94,0.22 0.95,0.2 1.9,0.35 2.84,0.43 0.31,0.03 0.62,0.05 0.93,0.06 0.62,0.03 1.23,0.03 1.83,0 1.06,-0.05 2.08,-0.19 3.02,-0.43 1.67,-0.21 2.87,-0.7 3.31,-1.45 0.74,-0.53 1.36,-1.17 1.82,-1.93 0.06,-0.11 0.13,-0.24 0.21,-0.38 0.02,-0.04 0.05,-0.1 0.07,-0.15 0.05,-0.11 0.11,-0.21 0.16,-0.33 0.03,-0.06 0.06,-0.14 0.09,-0.2 0.05,-0.12 0.11,-0.24 0.17,-0.37 0.03,-0.08 0.07,-0.16 0.1,-0.24 0.06,-0.14 0.12,-0.29 0.18,-0.44 0.03,-0.08 0.07,-0.16 0.1,-0.25 0.07,-0.17 0.14,-0.35 0.21,-0.53 0.03,-0.08 0.06,-0.15 0.09,-0.23 0.09,-0.22 0.18,-0.46 0.27,-0.7 0.02,-0.04 0.03,-0.08 0.05,-0.12 0.23,-0.59 0.46,-1.22 0.71,-1.89 0,0 0,-0.01 0,-0.01 v 0 c 0.08,-0.21 0.15,-0.42 0.23,-0.63 0.56,-1.46 1.11,-3.02 1.62,-4.56 1.83,-5.25 3.56,-10.45 3.92,-11.13 0.33,0.15 0.66,0.31 0.98,0.48 4.22,3 12.32,13.66 10.92,24.98 -0.23,1.87 1.64,2.87 4.48,3.22 7.65,1.48 22.59,-1.62 23.26,-7.01 0.95,-13.01 -13.56,-38.5 -24.91,-46.66 -0.19,-0.14 -0.38,-0.27 -0.57,-0.4 -0.25,-0.17 -0.49,-0.32 -0.74,-0.47 -0.03,-0.02 -0.06,-0.04 -0.1,-0.06 -0.3,-0.18 -0.59,-0.35 -0.88,-0.5 3.31,-3.8 5.77,-8.32 7.07,-13.18 5.53,-9.9 10.17,-23.04 13.97,-33.99 l 4.73,-7.55 c 5.69,10.73 16.61,14.59 25.66,13.01 9.79,-1.14 17.83,-8.48 15.6,-20.26 l -0.55,-0.29 c 9.52,-2.86 16.58,-9.22 12.16,-22.68 z"
   id="path3" />
		<g
   id="g46">
			<g
   id="g4">
				<path
   class="st0"
   d="m 277.95,131.58 c -1.49,-4.53 -1.24,-3.31 -3.84,-6.62 -3.64,-4.64 -15.97,-3.09 -21.37,-5.97 -5.13,-7.93 -12.31,-24.59 -23.82,-26.72 -0.39,1.03 -1.09,1.9 -2.11,2.55 -4.32,2.77 -9.38,4.77 -15.49,6.12 -0.02,0 -0.04,0.01 -0.06,0.01 3.5,0.09 7.14,0.57 10.83,1.51 9.92,2.53 21.77,12.9 23.03,21.32 0.23,1.54 -8.93,6.93 -9.53,8.91 -24.28,0 -15.06,22.4 -11.25,25.59 0.13,-0.06 0.26,-0.12 0.39,-0.18 0.07,0.18 0.14,0.36 0.21,0.54 0.06,0.02 0.11,0.03 0.16,0.03 -0.04,0.02 -0.09,0.04 -0.13,0.06 9.97,25.04 45.74,19.13 41.33,-4.18 l -0.55,-0.29 c 9.56,-2.87 16.62,-9.22 12.2,-22.68 z"
   id="path4" />
			</g>
			<path
   class="st4"
   d="m 197.92,215.49 c 12.03,1.69 31.87,39.03 28.41,50 -1.58,5.02 -27.12,9.33 -26.31,2.71 1.5,-12.2 -8.03,-23.64 -11.84,-25.54 -0.28,-0.14 -6.35,19.06 -8.26,22.23 -3.93,6.55 -19.39,4.13 -24.89,-2.93 -1.83,-2.36 -1.24,-4.99 0.38,-9.97 0.03,-0.11 -0.1,-0.18 -0.17,-0.1 -3.39,3.96 -18.37,-4.08 -16.02,-13.04 0.7,-2.67 -11.56,-1.16 -14.23,-1.71 -6.79,-1.4 13.58,24.83 9.53,34.81 -2.56,6.29 -25.32,8.95 -27.23,4.86 -3.19,-10.73 -3.62,-13.31 -10.39,-22.86 -6.9,-9.75 -6.62,-2.26 -1.69,3.49 5.3,6.19 4.72,10.22 0.76,12.33 -4.09,2.15 -21.48,9.15 -24.38,2.35 -4.61,-10.79 -22.63,-37.12 -5.92,-46.2 5.78,-3.13 6.68,-0.89 6.39,-7.69 -4.48,-22.5 4.03,-63.73 37.67,-63.73 11.9,0 9.44,1.22 20.42,3.47 29.19,1.75 38.48,-13.19 40.66,-25.03 2.18,33.28 35.04,30.08 54.21,26.5 -6.1,16.71 -15,47.06 -27.1,56.05 z"
   id="path5" />
			<path
   class="st5"
   d="m 73.84,189.93 c -0.22,7.39 1.48,15.13 6.85,20.22 4.69,4.44 11.79,4.84 18.25,4.99 2.32,0.05 5.03,-0.08 6.38,-1.96 2.47,4.25 4,9.04 4.44,13.93 0.18,1.95 0.24,4.08 1.49,5.58 0.77,0.92 1.88,1.48 2.99,1.94 3.06,1.27 6.34,2 9.65,2.15 4.06,10.17 7.19,20.71 9.35,31.44 -7.19,2.56 -14.66,4.35 -22.23,5.32 -1.27,0.16 -2.66,0.28 -3.74,-0.41 -1.03,-0.66 -1.51,-1.9 -1.93,-3.06 -1.69,-4.7 -3.38,-9.4 -5.07,-14.09 -0.69,-1.93 -1.48,-3.98 -3.15,-5.15 -1.67,-1.17 -4.51,-0.88 -5.21,1.04 -0.71,1.97 1.13,3.86 2.74,5.21 1.6,1.35 3.29,3.48 2.28,5.32 -0.61,1.09 -1.93,1.52 -3.13,1.84 -6.28,1.72 -12.59,3.34 -18.92,4.87 -0.74,0.18 -1.52,0.35 -2.24,0.11 -0.61,-0.2 -1.08,-0.67 -1.53,-1.14 -7,-7.29 -12.34,-16.61 -13,-26.69 -0.2,-3.01 0.08,-6.21 1.77,-8.7 0.89,-1.31 2.13,-2.35 3.4,-3.3 2.46,-1.82 5.13,-3.35 7.94,-4.55 0.43,-0.18 0.87,-0.37 1.19,-0.7 0.88,-0.92 0.46,-2.41 0.05,-3.62 -2.77,-8.07 -1.93,-16.34 -1.8,-24.86 0.05,-3.12 0.37,-7.61 2.54,-10.16 3.87,-4.58 0.72,1.68 0.64,4.43 z"
   id="path6" />
			<path
   class="st5"
   d="m 173.15,219.71 c 3.89,-0.57 7.63,-1.87 11.35,-3.17 2.17,-0.76 4.34,-1.52 6.44,-2.45 6.86,-3.03 12.9,-7.87 17.35,-13.91 -1.72,10.55 -9.03,19.91 -18.67,24.54 -0.57,0.27 -1.19,0.54 -1.82,0.45 -0.56,-0.08 -1.04,-0.43 -1.51,-0.76 -3.36,-2.31 -9.06,-4.68 -13.14,-4.7 z"
   id="path7" />
			<path
   class="st5"
   d="m 112.53,214.44 c 10.95,1.97 22.08,2.94 33.2,2.91 -1.54,1.19 -2.04,3.27 -2.42,5.18 -0.99,4.99 -1.86,10 -2.59,15.03 -9.87,1.09 -20.02,-0.36 -29.19,-4.16 -0.25,-0.11 -0.45,-4.89 -0.54,-5.45 -0.3,-1.93 -0.72,-3.83 -1.26,-5.71 -0.53,-1.87 -1.18,-3.72 -1.94,-5.51 -0.59,-1.4 -1.92,-3.12 -1.93,-4.64 2.19,0.89 4.19,1.9 6.67,2.35 z"
   id="path8" />
			<path
   class="st5"
   d="m 195.23,238.66 c 7.87,6.91 13.72,16.09 16.66,26.15 -2.6,0.18 -5.19,0.35 -7.79,0.53 -1.04,0.07 -2.24,0.08 -2.92,-0.7 -0.47,-0.53 -0.56,-1.28 -0.64,-1.98 -0.29,-2.64 -0.64,-5.28 -1.48,-7.8 -1.85,-5.53 -6.18,-10.17 -11.56,-12.41 0.21,-1.41 -0.13,-7.29 1.27,-7.93 1.51,-0.68 5.37,3.19 6.46,4.14 z"
   id="path9" />
			<path
   class="st5"
   d="m 162.52,239.19 c 0.26,0.05 0.53,0.13 0.71,0.33 0.15,0.17 0.22,0.39 0.28,0.61 1.09,4.05 -0.36,8.3 -1.79,12.24 -0.6,1.66 -1.21,3.33 -1.81,4.99 -0.28,0.77 -0.62,1.61 -1.35,1.96 -0.86,0.42 -1.95,-0.06 -2.5,-0.85 -0.55,-0.79 -0.66,-1.79 -0.67,-2.75 -0.04,-3.73 1.29,-7.26 2.6,-10.69 0.89,-2.3 0.86,-6.48 4.53,-5.84 z"
   id="path10" />
			<path
   class="st5"
   d="m 145.85,217.38 c -0.53,5.63 -0.62,11.31 -0.26,16.96 0.13,2.02 0.33,4.08 1.12,5.95 0.79,1.87 2.29,3.54 4.24,4.07 1.73,0.47 3.62,-0.01 5.1,-1.01 1.48,-1 2.58,-2.48 3.41,-4.07 0.1,3.64 -1.62,7.03 -3.93,9.85 -0.67,0.81 -1.39,1.63 -2.32,2.1 -0.79,0.4 -1.69,0.54 -2.57,0.56 -3.02,0.06 -6.04,-1.3 -8,-3.6 -3.23,-3.8 -3.26,-9.33 -2.72,-14.29 0.62,-5.77 1.65,-12.61 5.93,-16.52 z"
   id="path11" />
			<path
   class="st6"
   d="m 191.15,68.4 c 7.31,0.52 14.07,2.33 19.91,7.34 -0.84,0.15 -1.51,0.27 -2.19,0.38 -4.13,0.67 -8.26,1.34 -12.39,1.99 -0.26,0.04 -0.62,0 -0.79,-0.16 -2.66,-2.45 -4.33,-5.43 -4.59,-9.12 -0.02,-0.11 0.02,-0.22 0.05,-0.43 z"
   id="path12" />
			<path
   class="st6"
   d="m 186.36,94.67 c -0.93,-1.81 -3.11,-4.11 -5.42,-5.73 -4.91,-3.43 -10.72,-5.23 -18.29,-5.67 -1.53,-0.09 -3.08,-0.07 -4.57,-0.04 -0.68,0.01 -1.36,0.02 -2.05,0.02 -0.25,0 -0.5,0.1 -0.68,0.28 -0.18,0.18 -0.28,0.43 -0.27,0.68 v 0.15 c 0.01,0.48 0.36,0.87 0.83,0.93 l 0.9,0.11 c 0.65,0.08 1.29,0.16 1.94,0.25 4.56,0.62 8.52,2.54 11.79,5.68 3,2.9 5.12,6.45 6.63,9.22 0.25,0.45 0.81,0.99 1.47,1.11 0.68,0.12 1.37,0.17 1.98,0.22 0.23,0.02 0.45,0.03 0.66,0.05 0.03,0 0.06,0 0.09,0 0.31,0 0.6,-0.15 0.78,-0.4 l 4.15,-5.89 c 0.19,-0.28 0.22,-0.66 0.06,-0.97 z"
   id="path13" />
			<path
   class="st7"
   d="m 151.37,86.17 c 11.46,-0.64 19.47,2.99 25.69,15.3 -0.09,0.05 -0.18,0.14 -0.27,0.14 -4.88,0.11 -9.67,-0.27 -14.27,-2.12 -4.39,-1.76 -7.35,-4.97 -9.36,-9.15 -0.64,-1.32 -1.17,-2.7 -1.79,-4.17 z"
   id="path14" />
			<path
   class="st8"
   d="m 227.72,83.3 c -3.13,-3.58 -7.43,-5.52 -12.8,-5.78 -1.66,-0.08 -3.33,0.02 -4.94,0.12 l -0.53,0.03 c -1.93,0.12 -4.18,0.26 -6.41,0.53 -1.63,0.2 -3.26,0.46 -4.84,0.71 -0.75,0.12 -1.5,0.24 -2.25,0.35 -4.91,0.74 -9.09,1.86 -12.77,3.43 -0.99,0.42 -1.93,0.89 -2.92,1.4 -0.46,0.23 -0.93,0.47 -1.42,0.71 -0.42,0.2 -0.69,0.62 -0.71,1.09 -0.02,0.47 0.22,0.91 0.62,1.14 3.29,1.96 5.67,4.15 7.49,6.9 0.19,0.28 0.48,0.48 0.81,0.54 0.33,0.07 0.68,0 0.96,-0.19 l 0.4,-0.28 c 0.3,-0.21 0.59,-0.4 0.88,-0.59 2.19,-1.44 4.33,-2.14 6.54,-2.14 0.02,0 0.04,0 0.06,0 0.2,0 0.44,0.08 0.57,0.16 0.01,0.09 0,0.22 -0.02,0.35 -0.06,0.01 -0.16,0.03 -0.28,0.02 -1.11,-0.01 -2.77,0.06 -4.37,0.85 -6.05,2.99 -9.68,7.75 -10.79,14.15 -0.17,1 -0.13,2 -0.09,2.97 0.02,0.42 0.04,0.84 0.04,1.27 0,0.5 0.3,0.96 0.76,1.16 0.17,0.07 0.34,0.11 0.51,0.11 0.31,0 0.62,-0.11 0.86,-0.33 0.46,-0.42 0.88,-0.82 1.3,-1.22 0.83,-0.79 1.62,-1.54 2.45,-2.18 2.8,-2.18 6.32,-3.7 11.08,-4.76 2.53,-0.57 5.13,-1.09 7.64,-1.6 2.31,-0.47 4.7,-0.95 7.04,-1.46 6.11,-1.35 11.17,-3.35 15.49,-6.12 1.56,-1 2.41,-2.51 2.45,-4.35 0.06,-2.47 -0.86,-4.75 -2.81,-6.99 z"
   id="path15" />
			<path
   class="st7"
   d="m 263.27,155 c -6.21,1.45 -12.91,1.38 -20.6,-1.71 0,6.4 7.11,11.13 12.75,10.89 6.1,-0.27 7.85,-2.47 7.85,-9.18 z"
   id="path16" />
			<path
   class="st9"
   d="m 93.5,262.6 c -3.59,1.89 -16.51,7.17 -23.21,5.43 0.77,1.52 1.44,2.9 1.95,4.08 2.9,6.8 20.29,-0.2 24.38,-2.35 3.71,-1.97 4.45,-5.63 0.19,-11.16 -0.34,1.71 -1.5,3.03 -3.31,4 z"
   id="path17" />
			<path
   class="st9"
   d="m 132.89,263.58 c -2.35,5.78 -19.88,8.83 -27.36,7.23 0.52,1.71 1.09,3.66 1.78,5.98 1.91,4.09 24.67,1.44 27.23,-4.86 1.1,-2.72 0.39,-6.64 -1.08,-10.89 -0.09,0.93 -0.27,1.78 -0.57,2.54 z"
   id="path18" />
			<path
   class="st9"
   d="m 226.58,256 c -0.02,0.09 -0.05,0.18 -0.07,0.26 -1.38,4.36 -19.8,8.21 -25.91,5.59 0.25,1.86 0.29,3.78 0.05,5.71 -0.82,6.62 24.72,2.31 26.31,-2.71 0.67,-2.12 0.47,-5.22 -0.38,-8.85 z"
   id="path19" />
			<path
   class="st4"
   d="m 226.39,158.47 c -5.29,2.6 -28.34,8.15 -43.22,-1.76 -12.3,-8.18 -13.79,-24.48 -9.2,-38.98 2.92,-9.15 7,-18.31 8.32,-2.91 2.39,-9.09 21.07,-17.65 41.07,-12.55 9.92,2.53 21.77,12.9 23.03,21.32 0.23,1.54 -8.93,6.93 -9.53,8.91 -26.14,0 -13.44,25.97 -10.47,25.97 z"
   id="path20" />
			<path
   class="st10"
   d="m 210.67,131.28 c 4.99,0 9.06,-4.2 9.06,-9.38 0,-5.17 -4.07,-9.37 -9.06,-9.37 -4.99,0 -9.06,4.2 -9.06,9.37 0,5.18 4.07,9.38 9.06,9.38 z"
   id="path21" />
			<path
   class="st11"
   d="m 212.42,122.41 c 1.94,0 3.53,-1.64 3.53,-3.66 0,-2.02 -1.58,-3.66 -3.53,-3.66 -1.94,0 -3.53,1.64 -3.53,3.66 0,2.02 1.58,3.66 3.53,3.66 z"
   id="path22" />
			<path
   class="st8"
   d="m 59.93,189.5 c 6.73,-2.56 7.45,-4.2 15.67,-6.53 1.43,-4.48 2.43,-6.85 7.14,-12.1 3.67,-5.32 8.72,-10.81 14.71,-13.49 0.4,-0.52 0.62,-0.95 0.55,-1.24 -2.67,-3.66 -19.71,-13.22 -27.78,-12.82 -23.6,1.17 -22.3,19.61 -34.36,28.34 -3.3,2.39 -4.74,3.29 -12.91,4.35 2.99,4.51 26.25,17.93 47.21,-1.16 -5.9,5.41 -8.27,6.96 -10.23,14.65 z"
   id="path23" />
			<g
   id="g42">
				<path
   class="st8"
   d="m 181.86,102.61 c -0.3,-0.43 -0.78,-0.68 -1.3,-0.68 -1.02,0 -2.02,0.01 -3,0.01 -2.2,0.01 -4.28,0.03 -6.36,-0.03 -2.75,-0.07 -5.38,-0.58 -7.81,-1.52 -1.44,-0.55 -3,-0.8 -4.75,-0.81 -0.72,0 -1.51,0.33 -2.07,0.84 -0.44,0.41 -0.84,0.83 -1.22,1.24 -0.27,0.29 -0.54,0.58 -0.82,0.85 -2.34,2.29 -5.29,4.19 -9,5.79 -5.25,2.27 -10.09,3.51 -14.81,3.8 -0.61,0.04 -1.25,0.03 -1.92,0.02 -0.33,-0.01 -0.66,-0.01 -1,-0.01 -0.47,0 -0.91,0.21 -1.22,0.57 -0.3,0.36 -0.43,0.83 -0.35,1.3 l 0.02,0.13 c 0.02,0.15 0.05,0.41 0.21,0.71 1.96,3.67 4.09,6.61 6.52,8.98 1.2,1.17 2.69,2.44 4.66,2.98 -5.01,2.31 -8.8,5.26 -11.58,9.04 -0.6,0.81 -1.15,1.63 -1.73,2.49 -0.27,0.4 -0.54,0.8 -0.82,1.21 -0.32,0.47 -0.37,1.07 -0.12,1.58 0.24,0.51 0.74,0.85 1.31,0.9 l 0.35,0.03 c 0.23,0.02 0.4,0.03 0.56,0.04 0.51,0.01 1.02,0.01 1.54,0 1.1,-0.01 2.13,-0.01 3.15,0.09 1.57,0.16 2.99,0.44 4.22,0.83 0.36,0.11 0.64,0.2 0.49,1.15 -0.14,0.89 -0.55,1.66 -1.18,2.22 -1.76,1.56 -3.5,2.97 -5.18,4.19 -1.05,0.76 -2.19,1.45 -3.39,2.19 -0.56,0.34 -1.13,0.69 -1.71,1.06 -0.55,0.35 -0.84,1 -0.71,1.64 0.12,0.64 0.63,1.14 1.27,1.26 0.49,0.09 0.95,0.17 1.41,0.25 0.91,0.16 1.77,0.31 2.6,0.5 3.34,0.77 6.51,1.16 9.57,1.16 2.25,0 4.44,-0.21 6.59,-0.62 7.69,-1.49 14.27,-4.75 19.53,-9.69 2.39,-2.25 4.62,-4.54 5.5,-7.89 l 0.22,-0.83 c 0.77,-2.92 1.57,-5.93 2.2,-8.95 0.31,-1.45 0.51,-2.92 0.71,-4.34 0.18,-1.28 0.37,-2.61 0.62,-3.87 0.88,-4.38 2.78,-8.56 4.46,-12.25 1,-2.19 2.03,-3.48 3.46,-4.28 0.74,-0.42 0.92,-1.17 1.02,-1.57 0.02,-0.08 0.04,-0.16 0.06,-0.23 0.17,-0.51 0.1,-1.06 -0.2,-1.48 z"
   id="path24" />
				<path
   class="st12"
   d="m 263.27,155 c -6.21,1.45 -12.91,1.38 -20.6,-1.71 0,6.4 7.11,11.13 12.75,10.89 6.1,-0.27 7.85,-2.47 7.85,-9.18 z"
   id="path25" />
				<path
   class="st13"
   d="m 228.19,91.85 c 12.69,0.44 20.4,18.57 25.82,26.95 5.4,2.87 17.74,1.33 21.37,5.97 2.59,3.31 2.34,2.09 3.84,6.62 6.39,19.46 -11.22,24.08 -25.62,24.73 -5.46,-0.22 -14.59,-4.95 -16.5,-13.21"
   id="path26" />
				<path
   class="st13"
   d="m 267.59,154.35 c 4.45,23.5 -31.96,29.33 -41.58,3.55 -11.36,5.58 -28.41,7.27 -40.93,0.29 -20.67,-11.51 -13.7,-39.67 -6.43,-50.22"
   id="path27" />
				<path
   class="st13"
   d="m 227.07,160.42 c -5.11,1.86 -8.95,21.24 -16.19,35.83 -6.23,12.49 -13.02,22.61 -24.26,28.83"
   id="path28" />
				<path
   class="st13"
   d="m 198.55,215.49 c 11.54,3.46 30.29,34.19 29.21,48.92 -0.79,6.46 -22.08,9.62 -26.78,5.58 -0.25,-0.22 -0.13,-0.85 -0.13,-1.18 0,-6.91 -1.28,-13.8 -5.26,-19.44 -1.31,-1.86 -2.38,-3.13 -3.24,-4 -6.1,-6.15 -5.46,-0.51 -6.75,3.96 -2.02,7.06 -5.64,16.64 -7.38,17.26 -1.42,4.16 -24.31,0.98 -23.97,-7.93 l 5.69,-20.55"
   id="path29" />
				<path
   class="st13"
   d="m 156.38,250.99 c -16.84,4.07 -21.86,-13.26 -9.13,-36.74 0.07,-0.15 -0.13,0.02 0,0"
   id="path30" />
				<path
   class="st13"
   d="m 140.1,237.99 c -8.05,-0.44 -16.19,0.22 -23.7,-2.91 -0.52,-0.22 -4.52,-1.6 -4.81,-1.6"
   id="path31" />
				<path
   class="st13"
   d="m 123.75,237.08 c 1.21,5.17 11.9,31.54 11.9,34.85 -3.91,6.89 -26.76,5.86 -26.9,5.97 -0.18,-0.09 -7.15,-22.48 -11.79,-26.01 0.34,0.69 -4.93,0.42 -5.71,0.15 1.76,3.07 8.75,8.15 8.75,11.93 0,8.09 -19.56,14.2 -25.16,10.82 -5.92,-7.29 -24.53,-39.16 -8.91,-47 1.48,-0.75 3.8,-2.73 5.42,-3.15"
   id="path32" />
				<path
   class="st13"
   d="m 171.45,132.94 c -1.48,15.46 -22.15,27.64 -40.19,23.92 -27.33,-5.64 -40.7,-2.24 -54.04,20.33 -9.27,15.68 -8.9,35.85 1.35,56.51 0.65,-0.15 -0.45,0.51 0,0"
   id="path33" />
				<path
   class="st13"
   d="m 102.2,209.16 c 5.56,5.91 6.43,10.33 7.85,16.13 7.2,29.43 -24.72,26.14 -30.61,21.22"
   id="path34" />
				<path
   class="st13"
   d="m 158.63,223.96 c 9.67,-4.42 33.44,-12.4 28.61,19.31"
   id="path35" />
				<path
   class="st13"
   d="m 151.59,86.3 c 3.42,11.39 9.04,16.9 26.45,16.11 -6.61,-13.87 -14.12,-17 -26.45,-16.11 z"
   id="path36" />
				<path
   class="st13"
   d="m 151.59,86.3 c -5.51,-2.95 25.64,-8.28 35.49,8.42"
   id="path37" />
				<path
   class="st13"
   d="m 177.55,86.38 c 8.88,-7.37 28.13,-8.18 33.82,-8.57 15.56,-1.02 21.84,12.77 15.72,16.73 -16.19,10.44 -35.64,4.78 -43.99,18.22 -1.89,3.02 0.13,5.53 -1.48,-2.44 -1.48,-7.37 4.05,-15.3 10.46,-18.06 1.21,-0.53 2.29,-0.81 4.36,-0.81"
   id="path38" />
				<path
   class="st13"
   d="m 195.9,79.52 c -3.8,-2.75 -5.98,-7.77 -5.24,-11.51 10.86,0.51 16.75,3.75 21.88,8.75 -7.27,1.2 -12.64,2.09 -19.92,3.31"
   id="path39" />
				<path
   class="st13"
   d="m 233.86,144.58 c 2.3,-2.56 3.35,-2.6 6.84,-3"
   id="path40" />
				<path
   class="st13"
   d="m 235.99,143.87 c -0.95,8.15 3.76,22.42 12.62,24.17 8.82,1.73 15.86,-4.36 14.66,-13.04"
   id="path41" />
				<path
   class="st13"
   d="m 58.65,189.5 c 6.73,-2.56 7.45,-4.2 15.67,-6.53 1.43,-4.48 2.43,-6.85 7.14,-12.1 3.67,-5.32 8.72,-10.81 14.71,-13.49 0.4,-0.52 0.62,-0.95 0.55,-1.24 -2.67,-3.66 -19.71,-13.22 -27.78,-12.82 -23.6,1.17 -22.3,19.61 -34.36,28.34 -3.3,2.39 -4.74,3.29 -12.91,4.35 2.99,4.51 26.25,17.93 47.21,-1.16 -5.89,5.41 -8.26,6.96 -10.23,14.65 z"
   id="path42" />
			</g>
			<g
   id="g43">
				<path
   class="st10"
   d="m 258.48,142.58 c 1.91,0 3.46,-2.42 3.46,-5.4 0,-2.98 -1.55,-5.42 -3.46,-5.42 -1.91,0 -3.46,2.44 -3.46,5.42 0,2.98 1.55,5.4 3.46,5.4 z"
   id="path43" />
			</g>
			<g
   id="g44">
				<path
   class="st10"
   d="m 269.84,136.22 c 1.6,0 2.89,-2.02 2.89,-4.51 0,-2.49 -1.29,-4.53 -2.89,-4.53 -1.6,0 -2.89,2.04 -2.89,4.53 0,2.49 1.3,4.51 2.89,4.51 z"
   id="path44" />
			</g>
			<path
   class="st14"
   d="m 126.34,156.93 c 1.2,0.31 2.64,0.66 4.45,1.03 21.76,1.3 32.46,-6.67 37.4,-15.72 0.05,-0.12 0.1,-0.24 0.14,-0.36 3.96,-10.82 3.76,-19.26 7.49,-28.41 1.03,-2.49 2.09,-6.97 5.78,-7.93 0,-3.98 -0.41,-3.98 -3.89,-3.76 0.11,0.2 0.22,0.42 0.32,0.64 -7,0.31 -12.08,-0.38 -15.9,-2.07 -1.39,-0.2 -2.85,-0.33 -4.36,-0.33 -1.57,1.16 -2.63,3.29 -6.93,6.06 -5.6,3.6 -16.12,7.06 -23.08,6.18 -0.07,0 -1.24,0.02 -1.42,0.02 1.55,4.33 7.44,13.33 12.39,14.2 -7.35,3.35 -11.18,7.29 -14.93,13.97 -0.38,0.67 -0.56,-0.49 -0.56,0.95 2.02,0 12.62,-0.67 12.62,1.69 0,5.07 -14.84,10.71 -13.34,12.26 0.34,0.34 1.74,0.94 3.82,1.58 z"
   id="path45" />
			<path
   class="st9"
   d="m 156.79,254.18 c -0.84,1.18 -1.77,2.33 -2.81,3.4 -0.2,1.75 0.08,3.11 1.06,4.38 5.49,7.06 20.95,9.48 24.89,2.93 0.54,-0.91 1.43,-3.13 2.42,-5.82 -6.02,4.54 -19.88,1.84 -25.56,-4.89 z"
   id="path46" />
		</g>
	</g>
	<g
   id="g57">
		<path
   class="st15"
   d="m 210.5,164.26 8.92,-1 c -11.51,15.54 -41.39,19.96 -65.85,18.26 l -1.65,-3.86 c 23.85,0.18 39.66,-0.39 58.58,-13.4 z"
   id="path47" />
		<path
   class="st16"
   d="m 210.5,164.26 8.92,-1 c -11.51,15.54 -41.39,19.96 -65.85,18.26 l -1.65,-3.86 c 23.85,0.18 39.66,-0.39 58.58,-13.4 z"
   id="path48" />
		<path
   class="st17"
   d="m 111.53,174.61 -0.01,-0.02 c -0.97,6.36 -4.04,12.83 -11.43,19.61 -2.02,1.33 -2.85,3.9 -2.09,8.15 6.79,16.66 23.43,21.26 40.23,25.68 -2.73,-3.53 -3.06,-7.15 -2.07,-10.95 0.65,-3.21 2.27,-6.22 4.12,-8.92 2.49,-4.15 5.52,-8.47 7.94,-13.05 -0.01,-0.04 -0.05,-0.08 -0.06,-0.12 -15.7,-1.36 -28.76,-9.63 -36.63,-20.38 z"
   id="path49" />
		<path
   class="st17"
   d="m 107.93,170.38 c 1.95,-8.3 7.58,-12.39 15.29,-14.05 11.71,5.02 28.63,11.09 27.86,19.47 0.04,2.03 0.18,3.98 0.22,5.84 -0.41,4.36 -2,8.51 -4.07,12.48 -0.09,0.08 -0.18,0.18 -0.28,0.26 -17.42,-1.49 -31.58,-11.53 -39.02,-24 z"
   id="path50" />
		<path
   class="st18"
   d="m 110.31,174.61 -0.01,-0.02 c -0.97,6.36 -4.04,12.83 -11.43,19.61 -2.02,1.33 -2.85,3.9 -2.09,8.15 6.79,16.66 23.43,21.26 40.23,25.68 -2.73,-3.53 -3.06,-7.15 -2.07,-10.95 0.65,-3.21 2.27,-6.22 4.12,-8.92 2.49,-4.15 5.52,-8.47 7.94,-13.05 -0.01,-0.04 -0.05,-0.08 -0.06,-0.12 -15.69,-1.36 -28.75,-9.63 -36.63,-20.38 z"
   id="path51" />
		<path
   class="st19"
   d="m 137.02,228.03 c 19.95,4.37 31.91,-48.68 14.06,-51.62 3.64,21.05 -25.22,37.16 -14.06,51.62 z"
   id="path52" />
		<g
   id="g53">
			<path
   class="st20"
   d="m 166.24,174.86 c 0.13,0 0.24,0.07 0.25,0.15 l 1.1,8.11 c 0.01,0.09 -0.11,0.22 -0.27,0.24 l -3.74,0.53 c -0.02,0 -0.04,0 -0.05,0 -0.13,0 -0.23,-0.08 -0.23,-0.15 l -1.1,-8.09 c -0.01,-0.09 0.09,-0.23 0.27,-0.26 l 3.72,-0.53 c 0.02,0 0.03,0 0.05,0 m 0,-1.05 c -0.06,0 -0.13,0 -0.19,0.01 l -3.72,0.53 c -0.73,0.11 -1.24,0.75 -1.16,1.43 l 1.1,8.1 c 0.08,0.61 0.63,1.06 1.27,1.06 0.07,0 0.14,-0.01 0.21,-0.02 l 3.72,-0.53 c 0.73,-0.11 1.25,-0.74 1.16,-1.41 l -1.1,-8.12 c -0.08,-0.61 -0.64,-1.05 -1.29,-1.05 z"
   id="path53" />
		</g>
		<path
   class="st21"
   d="m 107.93,170.38 c 1.95,-8.3 7.58,-12.39 15.29,-14.05 11.71,5.02 28.63,11.09 27.86,19.47 0.04,2.03 0.18,3.98 0.22,5.84 -0.41,4.36 -2,8.51 -4.07,12.48 -0.09,0.08 -0.18,0.18 -0.28,0.26 -17.42,-1.49 -31.58,-11.53 -39.02,-24 z"
   id="path54" />
		<path
   class="st17"
   d="m 122.71,176.22 c -0.61,6.08 -6.4,13.5 -6.44,14.07 0.02,-0.01 4.85,6.2 6.89,6.69 4.83,0.4 9.67,-3.56 11.4,-15.44 -0.69,-3.65 -9.56,-7.36 -11.85,-5.32 z"
   id="path55" />
		<path
   class="st22"
   d="m 135.63,228.72 c 21.41,4.68 34.25,-52.24 15.09,-55.39 3.91,22.58 -27.07,39.86 -15.09,55.39 z"
   id="path56" />
		<path
   class="st18"
   d="m 122.71,176.22 c -0.61,6.08 -6.4,13.5 -6.44,14.07 0.02,-0.01 4.85,6.2 6.89,6.69 4.83,0.4 9.67,-3.56 11.4,-15.44 -0.69,-3.65 -9.56,-7.36 -11.85,-5.32 z"
   id="path57" />
	</g>
</g>











</svg>
